<?xml version="1.0" encoding="UTF-8"?>
<svg xmlns="http://www.w3.org/2000/svg" xmlns:xlink="http://www.w3.org/1999/xlink" width="64pt" height="64pt" viewBox="0 0 64 64" version="1.1">
<g id="surface9372275">
<path style=" stroke:none;fill-rule:nonzero;fill:rgb(21.568627%,27.843137%,46.666667%);fill-opacity:1;" d="M 32 1.9375 C 27.789062 1.9375 23.574219 2.859375 19.652344 4.703125 L 18.800781 5.105469 C 15.867188 6.484375 13.738281 9.207031 13.105469 12.382812 L 11.210938 21.84375 C 11.148438 22.148438 10.957031 22.40625 10.675781 22.542969 C 9.644531 23.0625 9 24.101562 9 25.257812 L 9 36.742188 C 9 37.898438 9.640625 38.9375 10.746094 39.488281 C 11.003906 39.617188 11.191406 39.851562 11.265625 40.128906 L 14.910156 53.796875 C 15.03125 54.25 15.257812 54.671875 15.566406 55.019531 L 22.65625 62.992188 C 23.222656 63.632812 24.042969 64 24.898438 64 L 39.101562 64 C 39.957031 64 40.777344 63.632812 41.34375 62.992188 L 48.433594 55.019531 C 48.742188 54.671875 48.96875 54.246094 49.089844 53.796875 L 52.734375 40.128906 C 52.808594 39.851562 52.996094 39.621094 53.324219 39.457031 C 54.355469 38.9375 55 37.898438 55 36.742188 L 55 25.257812 C 55 24.101562 54.355469 23.0625 53.324219 22.542969 C 53.042969 22.402344 52.851562 22.148438 52.789062 21.84375 L 50.894531 12.386719 C 50.261719 9.207031 48.132812 6.488281 45.199219 5.109375 L 44.347656 4.703125 C 40.421875 2.859375 36.210938 1.9375 32 1.9375 Z M 32 3.9375 C 35.921875 3.9375 39.84375 4.796875 43.496094 6.515625 L 44.347656 6.917969 C 46.710938 8.027344 48.425781 10.21875 48.9375 12.777344 L 49.046875 13.324219 C 48.148438 12.507812 47.140625 11.8125 46.046875 11.296875 C 44.066406 10.363281 41.960938 9.621094 39.792969 9.09375 C 39.242188 8.960938 38.65625 9.074219 38.1875 9.398438 C 37.714844 9.734375 37.40625 10.253906 37.34375 10.828125 L 36.203125 21.109375 C 36.148438 21.617188 35.71875 22 35.207031 22 L 28.789062 22 C 28.277344 22 27.851562 21.617188 27.796875 21.109375 L 26.65625 10.828125 C 26.59375 10.253906 26.285156 9.730469 25.8125 9.398438 C 25.34375 9.070312 24.757812 8.960938 24.207031 9.09375 C 22.042969 9.617188 19.933594 10.359375 17.941406 11.296875 C 16.847656 11.8125 15.851562 12.511719 14.953125 13.324219 L 15.0625 12.777344 C 15.578125 10.214844 17.289062 8.027344 19.652344 6.914062 L 20.503906 6.515625 C 24.15625 4.796875 28.078125 3.9375 32 3.9375 Z M 31 7 C 30.449219 7 30 7.449219 30 8 C 30 8.550781 30.449219 9 31 9 L 33 9 C 33.550781 9 34 8.550781 34 8 C 34 7.449219 33.550781 7 33 7 Z M 39.320312 11.035156 C 41.359375 11.53125 43.335938 12.226562 45.191406 13.105469 C 46.578125 13.757812 47.824219 14.738281 48.796875 15.9375 L 46.582031 29.566406 C 46.542969 29.792969 46.378906 29.976562 46.160156 30.035156 C 36.894531 32.601562 27.101562 32.601562 17.839844 30.035156 C 17.621094 29.972656 17.457031 29.792969 17.421875 29.578125 L 15.207031 15.953125 C 16.179688 14.75 17.40625 13.761719 18.796875 13.105469 C 20.664062 12.226562 22.644531 11.53125 24.671875 11.046875 L 25.808594 21.328125 C 25.976562 22.851562 27.257812 24 28.792969 24 L 35.210938 24 C 36.742188 24 38.023438 22.851562 38.191406 21.328125 Z M 31 12 C 30.449219 12 30 12.449219 30 13 C 30 13.550781 30.449219 14 31 14 L 33 14 C 33.550781 14 34 13.550781 34 13 C 34 12.449219 33.550781 12 33 12 Z M 31 17 C 30.449219 17 30 17.449219 30 18 C 30 18.550781 30.449219 19 31 19 L 33 19 C 33.550781 19 34 18.550781 34 18 C 34 17.449219 33.550781 17 33 17 Z M 13.738281 19.402344 L 15.445312 29.910156 C 15.46875 30.054688 15.53125 30.183594 15.578125 30.320312 C 15.539062 30.363281 15.488281 30.394531 15.453125 30.445312 L 14.503906 31.871094 C 13.621094 33.195312 13.925781 34.980469 15.199219 35.9375 L 16.621094 37 C 17.480469 37.644531 18.542969 38 19.621094 38 L 25.050781 38 C 26.195312 38 27.222656 37.363281 27.734375 36.34375 L 28.96875 33.871094 C 29.980469 33.925781 30.988281 33.964844 32 33.964844 C 32.777344 33.964844 33.558594 33.9375 34.335938 33.90625 L 35.550781 36.34375 C 36.0625 37.363281 37.09375 38 38.234375 38 L 43.667969 38 C 44.742188 38 45.808594 37.644531 46.667969 37 L 48.085938 35.9375 C 49.359375 34.980469 49.664062 33.195312 48.78125 31.871094 L 48.128906 30.894531 C 48.332031 30.59375 48.492188 30.269531 48.554688 29.902344 L 50.261719 19.402344 L 50.828125 22.234375 C 51.007812 23.152344 51.59375 23.914062 52.425781 24.332031 C 52.78125 24.507812 53 24.863281 53 25.257812 L 53 36.742188 C 53 37.136719 52.78125 37.492188 52.359375 37.703125 C 52.179688 37.792969 51.417969 38.152344 51.253906 38.335938 L 44.265625 46.199219 C 43.449219 47.113281 43 48.296875 43 49.519531 L 43 52.171875 C 43 52.4375 42.894531 52.691406 42.707031 52.878906 L 42.109375 53.480469 L 40.402344 51.199219 C 39.835938 50.449219 38.9375 50 38 50 L 26 50 C 25.0625 50 24.164062 50.445312 23.597656 51.199219 L 21.890625 53.480469 L 21.292969 52.878906 C 21.105469 52.691406 21 52.4375 21 52.171875 L 21 49.519531 C 21 48.296875 20.550781 47.113281 19.734375 46.199219 L 12.746094 38.335938 C 12.582031 38.148438 11.773438 37.769531 11.574219 37.671875 C 11.21875 37.492188 11 37.136719 11 36.742188 L 11 25.257812 C 11 24.863281 11.21875 24.507812 11.574219 24.332031 C 12.40625 23.914062 12.988281 23.152344 13.171875 22.234375 Z M 16.949219 31.808594 C 17.066406 31.863281 17.179688 31.929688 17.308594 31.964844 C 20.429688 32.832031 23.613281 33.410156 26.8125 33.714844 L 25.945312 35.449219 C 25.773438 35.789062 25.433594 36 25.050781 36 L 19.621094 36 C 18.972656 36 18.335938 35.789062 17.820312 35.402344 L 16.402344 34.335938 C 15.976562 34.019531 15.871094 33.421875 16.167969 32.980469 Z M 46.476562 32.019531 L 47.117188 32.980469 C 47.414062 33.421875 47.3125 34.019531 46.886719 34.335938 L 45.46875 35.402344 C 44.949219 35.789062 44.3125 36 43.667969 36 L 38.234375 36 C 37.851562 36 37.511719 35.789062 37.34375 35.449219 L 36.5 33.769531 C 39.859375 33.492188 43.199219 32.914062 46.476562 32.019531 Z M 14.050781 42.8125 L 18.242188 47.527344 C 18.730469 48.078125 19 48.785156 19 49.519531 L 19 52.171875 C 19 52.972656 19.3125 53.726562 19.878906 54.292969 L 20.480469 54.890625 C 20.886719 55.300781 21.457031 55.515625 22.03125 55.472656 C 22.613281 55.433594 23.144531 55.140625 23.492188 54.675781 L 25.199219 52.402344 C 25.386719 52.148438 25.6875 52 26 52 L 38 52 C 38.3125 52 38.613281 52.148438 38.800781 52.402344 L 40.507812 54.675781 C 40.855469 55.140625 41.386719 55.433594 41.96875 55.472656 C 42.015625 55.476562 42.058594 55.480469 42.109375 55.480469 C 42.636719 55.480469 43.144531 55.269531 43.519531 54.890625 L 44.121094 54.292969 C 44.6875 53.726562 45 52.972656 45 52.171875 L 45 49.519531 C 45 48.785156 45.269531 48.078125 45.757812 47.527344 L 49.949219 42.8125 L 47.15625 53.285156 C 47.117188 53.433594 47.042969 53.574219 46.9375 53.691406 L 39.847656 61.664062 C 39.660156 61.878906 39.386719 62 39.101562 62 L 24.898438 62 C 24.613281 62 24.339844 61.878906 24.152344 61.664062 L 17.0625 53.6875 C 16.957031 53.574219 16.882812 53.433594 16.84375 53.28125 Z M 27 56 C 26.449219 56 26 56.449219 26 57 L 26 59 C 26 59.550781 26.449219 60 27 60 C 27.550781 60 28 59.550781 28 59 L 28 57 C 28 56.449219 27.550781 56 27 56 Z M 32 56 C 31.449219 56 31 56.449219 31 57 L 31 59 C 31 59.550781 31.449219 60 32 60 C 32.550781 60 33 59.550781 33 59 L 33 57 C 33 56.449219 32.550781 56 32 56 Z M 37 56 C 36.449219 56 36 56.449219 36 57 L 36 59 C 36 59.550781 36.449219 60 37 60 C 37.550781 60 38 59.550781 38 59 L 38 57 C 38 56.449219 37.550781 56 37 56 Z M 37 56 "/>
</g>
</svg>
