<?xml version="1.0" encoding="UTF-8"?>
<svg xmlns="http://www.w3.org/2000/svg" xmlns:xlink="http://www.w3.org/1999/xlink" width="64pt" height="64pt" viewBox="0 0 64 64" version="1.1">
<g id="surface9372389">
<path style=" stroke:none;fill-rule:nonzero;fill:rgb(21.568627%,27.843137%,46.666667%);fill-opacity:1;" d="M 32 2 C 27.660156 2 23.679688 3.542969 20.566406 6.109375 C 20.40625 6.183594 20.28125 6.308594 20.183594 6.453125 C 16.402344 9.757812 14 14.597656 14 20 L 11 20 C 8.242188 20 6 22.242188 6 25 L 6 56.585938 L 2 60.585938 C 1.425781 61.160156 1.257812 62.015625 1.566406 62.765625 C 1.875 63.515625 2.601562 64 3.414062 64 L 14 64 C 15.101562 64 16 63.101562 16 62 L 16 49.816406 C 16.3125 49.929688 16.648438 50 17 50 L 17.382812 50 L 18.828125 52.894531 C 19.167969 53.578125 19.851562 54 20.617188 54 L 28 54 L 28 56.167969 C 27.472656 56.34375 26.996094 56.644531 26.632812 57.078125 L 23.597656 60.71875 C 23.097656 61.324219 22.992188 62.136719 23.324219 62.847656 C 23.65625 63.558594 24.351562 64 25.136719 64 L 38.863281 64 C 39.648438 64 40.34375 63.558594 40.675781 62.847656 C 41.007812 62.140625 40.90625 61.324219 40.402344 60.71875 L 37.371094 57.078125 C 37.003906 56.644531 36.527344 56.34375 36 56.167969 L 36 54 L 43.382812 54 C 44.148438 54 44.832031 53.574219 45.171875 52.894531 L 46.617188 50 L 47 50 C 47.351562 50 47.6875 49.929688 48 49.816406 L 48 62 C 48 63.101562 48.898438 64 50 64 L 60.585938 64 C 61.398438 64 62.121094 63.515625 62.433594 62.765625 C 62.746094 62.015625 62.574219 61.160156 62 60.585938 L 58 56.585938 L 58 25 C 58 22.242188 55.757812 20 53 20 L 50 20 C 50 10.074219 41.925781 2 32 2 Z M 32 4 C 40.820312 4 48 11.179688 48 20 L 16 20 C 16 15.21875 18.117188 10.933594 21.453125 8 L 29 8 C 29.554688 8 30 7.550781 30 7 C 30 6.449219 29.554688 6 29 6 L 24.269531 6 C 26.566406 4.730469 29.199219 4 32 4 Z M 33 6 C 32.445312 6 32 6.449219 32 7 C 32 7.550781 32.445312 8 33 8 L 37 8 C 37.554688 8 38 7.550781 38 7 C 38 6.449219 37.554688 6 37 6 Z M 32 10 C 29.792969 10 28 11.792969 28 14 C 28 16.207031 29.792969 18 32 18 C 34.207031 18 36 16.207031 36 14 C 36 11.792969 34.207031 10 32 10 Z M 32 12 C 33.101562 12 34 12.898438 34 14 C 34 15.101562 33.101562 16 32 16 C 30.898438 16 30 15.101562 30 14 C 30 12.898438 30.898438 12 32 12 Z M 40 12 C 38.894531 12 38 12.894531 38 14 C 38 15.105469 38.894531 16 40 16 C 41.105469 16 42 15.105469 42 14 C 42 12.894531 41.105469 12 40 12 Z M 11 22 L 14 22 L 14 30 L 8 30 L 8 25 C 8 23.347656 9.347656 22 11 22 Z M 16 22 L 48 22 L 48 47 C 48 47.550781 47.550781 48 47 48 L 17 48 C 16.449219 48 16 47.550781 16 47 Z M 50 22 L 53 22 C 54.652344 22 56 23.347656 56 25 L 56 30 L 50 30 Z M 19 24 C 18.445312 24 18 24.449219 18 25 L 18 27 C 18 27.550781 18.445312 28 19 28 C 19.554688 28 20 27.550781 20 27 L 20 25 C 20 24.449219 19.554688 24 19 24 Z M 24 24 C 23.445312 24 23 24.449219 23 25 L 23 27 C 23 27.550781 23.445312 28 24 28 C 24.554688 28 25 27.550781 25 27 L 25 25 C 25 24.449219 24.554688 24 24 24 Z M 29 24 C 28.445312 24 28 24.449219 28 25 L 28 27 C 28 27.550781 28.445312 28 29 28 C 29.554688 28 30 27.550781 30 27 L 30 25 C 30 24.449219 29.554688 24 29 24 Z M 35 24 C 34.445312 24 34 24.449219 34 25 L 34 27 C 34 27.550781 34.445312 28 35 28 C 35.554688 28 36 27.550781 36 27 L 36 25 C 36 24.449219 35.554688 24 35 24 Z M 40 24 C 39.445312 24 39 24.449219 39 25 L 39 27 C 39 27.550781 39.445312 28 40 28 C 40.554688 28 41 27.550781 41 27 L 41 25 C 41 24.449219 40.554688 24 40 24 Z M 45 24 C 44.445312 24 44 24.449219 44 25 L 44 27 C 44 27.550781 44.445312 28 45 28 C 45.554688 28 46 27.550781 46 27 L 46 25 C 46 24.449219 45.554688 24 45 24 Z M 23 30 C 22.445312 30 22 30.449219 22 31 C 22 31.550781 22.445312 32 23 32 L 41 32 C 41.554688 32 42 31.550781 42 31 C 42 30.449219 41.554688 30 41 30 Z M 8 32 L 14 32 L 14 56 L 8 56 Z M 50 32 L 56 32 L 56 56 L 50 56 Z M 28 34 C 26.898438 34 26 34.898438 26 36 L 26 44 C 26 45.101562 26.898438 46 28 46 L 36 46 C 37.101562 46 38 45.101562 38 44 L 38 36 C 38 34.898438 37.101562 34 36 34 Z M 28 36 L 36 36 L 36 44 L 28 44 Z M 19.617188 50 L 44.382812 50 L 43.382812 52 L 20.617188 52 Z M 30 54 L 34 54 L 34 56 L 30 56 Z M 7.414062 58 L 14 58 L 14 62 L 3.414062 62 Z M 28.9375 58 L 35.0625 58 C 35.363281 58 35.640625 58.128906 35.832031 58.359375 L 38.875 62 L 25.136719 62 L 28.171875 58.359375 C 28.359375 58.128906 28.640625 58 28.9375 58 Z M 50 58 L 56.589844 58 L 60.59375 62 L 50 62 Z M 50 58 "/>
</g>
</svg>
