<?xml version="1.0" encoding="UTF-8"?>
<svg xmlns="http://www.w3.org/2000/svg" xmlns:xlink="http://www.w3.org/1999/xlink" width="64pt" height="64pt" viewBox="0 0 64 64" version="1.1">
<g id="surface9371025">
<path style=" stroke:none;fill-rule:nonzero;fill:rgb(21.568627%,27.843137%,46.666667%);fill-opacity:1;" d="M 12.203125 3 C 7.636719 3 1 11.234375 1 21 C 1 29.507812 5.910156 38.027344 10.25 42.949219 C 10.578125 43.753906 10.929688 44.433594 11.261719 44.992188 C 11.089844 46.148438 11 47.320312 11 48.5 C 11 56.707031 21.566406 61 32 61 C 42.4375 61 53 56.707031 53 48.5 C 53 47.390625 52.90625 46.277344 52.738281 45.171875 C 53.136719 44.53125 53.570312 43.703125 53.964844 42.695312 C 58.253906 37.738281 63 29.371094 63 21 C 63 11.234375 56.363281 3 51.796875 3 C 50.261719 3 48.804688 3.90625 47.589844 5.625 C 45.429688 8.679688 44.050781 16.519531 45.75 21.332031 C 45.90625 21.769531 46.109375 22.273438 46.34375 22.839844 C 47.40625 25.441406 48.984375 29.335938 48.496094 34.511719 C 45.296875 29.6875 40.738281 25.925781 35.90625 24.5625 L 34.949219 21.683594 C 34.773438 21.160156 34.210938 20.875 33.683594 21.050781 C 33.160156 21.226562 32.878906 21.792969 33.050781 22.316406 L 33.648438 24.109375 C 33.625 24.105469 33.597656 24.105469 33.574219 24.101562 L 30.796875 20.402344 C 30.46875 19.957031 29.839844 19.867188 29.398438 20.199219 C 28.957031 20.53125 28.867188 21.15625 29.199219 21.597656 L 30.773438 23.699219 L 26.511719 21.144531 C 26.039062 20.859375 25.425781 21.011719 25.140625 21.484375 C 24.859375 21.957031 25.011719 22.574219 25.484375 22.855469 L 28.203125 24.488281 C 23.234375 25.746094 18.667969 29.378906 15.480469 34.175781 C 15.09375 29.171875 16.617188 25.382812 17.65625 22.835938 C 17.742188 22.628906 17.796875 22.472656 17.875 22.285156 C 17.898438 22.234375 17.925781 22.195312 17.949219 22.148438 C 17.980469 22.085938 17.988281 22.015625 18.003906 21.953125 C 18.085938 21.75 18.183594 21.511719 18.246094 21.332031 C 19.949219 16.519531 18.570312 8.675781 16.40625 5.625 C 15.195312 3.90625 13.738281 3 12.203125 3 Z M 12.203125 5 C 13.050781 5 13.964844 5.628906 14.773438 6.777344 C 16.671875 9.460938 17.785156 16.640625 16.363281 20.667969 C 16.285156 20.890625 16.167969 21.171875 16.0625 21.429688 C 14.695312 24.03125 13.410156 25.9375 12.371094 27.46875 C 10.914062 29.625 9.761719 31.324219 9.347656 33.570312 C 9.035156 35.28125 8.988281 36.847656 9.109375 38.257812 C 5.910156 33.605469 3 27.25 3 21 C 3 12.316406 8.957031 5 12.203125 5 Z M 51.796875 5 C 55.042969 5 61 12.316406 61 21 C 61 27.167969 58.160156 33.433594 55.011719 38.070312 C 55.113281 36.707031 55.0625 35.207031 54.761719 33.566406 C 54.347656 31.324219 53.195312 29.625 51.734375 27.46875 C 50.667969 25.898438 49.34375 23.941406 47.9375 21.226562 C 47.894531 21.152344 47.835938 21.09375 47.78125 21.03125 C 47.738281 20.917969 47.675781 20.773438 47.636719 20.667969 C 46.214844 16.640625 47.328125 9.460938 49.226562 6.777344 C 50.035156 5.628906 50.949219 5 51.796875 5 Z M 54.679688 9.667969 C 54.425781 9.644531 54.164062 9.722656 53.953125 9.902344 L 52.429688 11.195312 C 52.007812 11.554688 51.960938 12.1875 52.316406 12.605469 C 52.515625 12.839844 52.796875 12.957031 53.078125 12.957031 C 53.308594 12.957031 53.539062 12.878906 53.722656 12.71875 L 55.246094 11.425781 C 55.667969 11.066406 55.71875 10.4375 55.359375 10.015625 C 55.183594 9.804688 54.933594 9.6875 54.679688 9.664062 Z M 9.320312 9.667969 C 9.066406 9.6875 8.816406 9.804688 8.636719 10.015625 C 8.28125 10.4375 8.332031 11.066406 8.75 11.425781 L 10.273438 12.722656 C 10.460938 12.878906 10.691406 12.957031 10.921875 12.957031 C 11.203125 12.957031 11.484375 12.839844 11.683594 12.609375 C 12.042969 12.1875 11.992188 11.554688 11.570312 11.199219 L 10.046875 9.902344 C 9.835938 9.722656 9.574219 9.648438 9.320312 9.667969 Z M 57.113281 14.042969 C 56.984375 14.03125 56.851562 14.046875 56.71875 14.089844 L 54.820312 14.71875 C 54.296875 14.890625 54.011719 15.457031 54.1875 15.980469 C 54.324219 16.402344 54.714844 16.667969 55.136719 16.667969 C 55.238281 16.667969 55.34375 16.652344 55.449219 16.613281 L 57.347656 15.988281 C 57.871094 15.816406 58.15625 15.25 57.984375 14.722656 C 57.851562 14.332031 57.503906 14.070312 57.113281 14.039062 Z M 6.886719 14.042969 C 6.496094 14.074219 6.148438 14.332031 6.015625 14.726562 C 5.84375 15.25 6.128906 15.816406 6.652344 15.988281 L 8.550781 16.617188 C 8.65625 16.652344 8.761719 16.667969 8.863281 16.667969 C 9.285156 16.667969 9.675781 16.402344 9.8125 15.984375 C 9.988281 15.457031 9.703125 14.890625 9.179688 14.71875 L 7.28125 14.089844 C 7.148438 14.046875 7.015625 14.03125 6.886719 14.042969 Z M 6.230469 18.925781 C 5.65625 18.886719 5.226562 19.367188 5.222656 19.917969 C 5.214844 20.46875 5.660156 20.921875 6.214844 20.925781 L 8.214844 20.9375 L 8.222656 20.9375 C 8.769531 20.9375 9.214844 20.496094 9.222656 19.945312 C 9.226562 19.394531 8.78125 18.945312 8.230469 18.9375 Z M 57.769531 18.925781 L 55.769531 18.9375 C 55.21875 18.945312 54.773438 19.394531 54.777344 19.945312 C 54.785156 20.496094 55.230469 20.9375 55.777344 20.9375 L 55.785156 20.9375 L 57.785156 20.925781 C 58.339844 20.921875 58.785156 20.46875 58.777344 19.917969 C 58.773438 19.367188 58.328125 18.925781 57.777344 18.925781 Z M 8.90625 23.347656 C 8.777344 23.324219 8.644531 23.324219 8.511719 23.355469 L 6.554688 23.777344 C 6.015625 23.894531 5.671875 24.429688 5.789062 24.96875 C 5.890625 25.4375 6.304688 25.753906 6.765625 25.753906 C 6.835938 25.753906 6.90625 25.75 6.976562 25.730469 L 8.929688 25.308594 C 9.472656 25.191406 9.8125 24.660156 9.695312 24.117188 C 9.609375 23.714844 9.289062 23.421875 8.90625 23.347656 Z M 55.09375 23.347656 C 54.710938 23.421875 54.386719 23.714844 54.300781 24.117188 C 54.183594 24.660156 54.527344 25.191406 55.066406 25.308594 L 57.023438 25.730469 C 57.09375 25.75 57.164062 25.753906 57.234375 25.753906 C 57.695312 25.753906 58.109375 25.4375 58.210938 24.96875 C 58.328125 24.429688 57.984375 23.894531 57.441406 23.777344 L 55.488281 23.355469 C 55.355469 23.328125 55.222656 23.324219 55.09375 23.347656 Z M 32 26 C 41.210938 26 50.949219 37.566406 50.949219 48.5 C 50.949219 55.320312 41.1875 59 32 59 C 22.8125 59 13.050781 55.320312 13.050781 48.5 C 13.050781 47.460938 13.125 46.429688 13.269531 45.410156 C 13.378906 45.203125 13.421875 44.96875 13.375 44.738281 C 15.078125 34.671875 23.324219 26 32 26 Z M 31 28 C 30.386719 28 29.746094 28.074219 29.09375 28.21875 C 28.554688 28.339844 28.21875 28.875 28.335938 29.410156 C 28.441406 29.878906 28.851562 30.195312 29.308594 30.195312 C 29.382812 30.195312 29.457031 30.1875 29.527344 30.171875 C 30.039062 30.058594 30.53125 30 31 30 C 31.554688 30 32 29.550781 32 29 C 32 28.449219 31.554688 28 31 28 Z M 50.265625 28.871094 C 51.582031 30.820312 52.472656 32.1875 52.792969 33.929688 C 53.382812 37.136719 52.917969 39.761719 52.214844 41.695312 C 52.148438 41.773438 52.078125 41.855469 52.011719 41.929688 C 51.527344 40.308594 50.882812 38.730469 50.105469 37.21875 C 50.75 34.058594 50.664062 31.261719 50.265625 28.871094 Z M 13.6875 29.101562 C 13.332031 31.378906 13.269531 34.011719 13.839844 36.972656 C 13.0625 38.515625 12.417969 40.136719 11.945312 41.816406 C 11.214844 39.875 10.714844 37.210938 11.316406 33.929688 C 11.625 32.257812 12.460938 30.925781 13.6875 29.101562 Z M 26.167969 29.382812 C 26.039062 29.394531 25.910156 29.433594 25.789062 29.503906 C 24.78125 30.054688 23.804688 30.746094 23.113281 31.394531 C 22.707031 31.773438 22.683594 32.40625 23.0625 32.808594 C 23.257812 33.019531 23.523438 33.125 23.792969 33.125 C 24.039062 33.125 24.28125 33.039062 24.476562 32.855469 C 25.046875 32.324219 25.898438 31.726562 26.753906 31.253906 C 27.238281 30.988281 27.414062 30.378906 27.148438 29.894531 C 26.949219 29.535156 26.554688 29.34375 26.167969 29.382812 Z M 20.5 37 C 18.503906 37 17 39.363281 17 42.5 C 17 45.636719 18.503906 48 20.5 48 C 22.496094 48 24 45.636719 24 42.5 C 24 39.363281 22.496094 37 20.5 37 Z M 43.5 37 C 41.503906 37 40 39.363281 40 42.5 C 40 45.636719 41.503906 48 43.5 48 C 45.496094 48 47 45.636719 47 42.5 C 47 39.363281 45.496094 37 43.5 37 Z M 32.011719 37.25 C 31.050781 37.25 30.089844 37.382812 29.058594 37.644531 C 28.523438 37.78125 28.195312 38.324219 28.332031 38.859375 C 28.46875 39.394531 29.011719 39.71875 29.550781 39.582031 C 31.296875 39.140625 32.722656 39.144531 34.472656 39.589844 C 34.554688 39.609375 34.640625 39.617188 34.722656 39.617188 C 35.164062 39.617188 35.574219 39.316406 35.691406 38.867188 C 35.824219 38.332031 35.503906 37.789062 34.96875 37.652344 C 33.933594 37.386719 32.96875 37.253906 32.011719 37.253906 Z M 20.5 38 C 21.328125 38 22 38.671875 22 39.5 C 22 40.328125 21.328125 41 20.5 41 C 19.671875 41 19 40.328125 19 39.5 C 19 38.671875 19.671875 38 20.5 38 Z M 43.5 38 C 44.328125 38 45 38.671875 45 39.5 C 45 40.328125 44.328125 41 43.5 41 C 42.671875 41 42 40.328125 42 39.5 C 42 38.671875 42.671875 38 43.5 38 Z M 32 41 C 30.515625 41 26 41 26 45.199219 C 26 48.5625 29.585938 51 32 51 C 34.414062 51 38 48.5625 38 45.199219 C 38 41 33.484375 41 32 41 Z M 32.011719 42.25 C 32.96875 42.253906 33.933594 42.386719 34.96875 42.648438 C 35.503906 42.789062 35.824219 43.332031 35.691406 43.867188 C 35.574219 44.316406 35.164062 44.617188 34.722656 44.617188 C 34.640625 44.617188 34.554688 44.609375 34.472656 44.589844 C 32.722656 44.144531 31.296875 44.140625 29.546875 44.582031 C 29.011719 44.71875 28.46875 44.394531 28.332031 43.859375 C 28.195312 43.324219 28.523438 42.78125 29.054688 42.644531 C 30.089844 42.382812 31.050781 42.25 32.007812 42.25 Z M 45.84375 52.011719 C 45.714844 52.03125 45.585938 52.078125 45.46875 52.152344 C 41.765625 54.476562 39.488281 54.136719 36.332031 53.65625 C 34.941406 53.449219 33.367188 53.210938 31.519531 53.210938 C 29.667969 53.210938 28.1875 53.457031 26.882812 53.675781 C 24.058594 54.140625 22.195312 54.449219 18.53125 52.152344 C 18.0625 51.859375 17.449219 52 17.152344 52.46875 C 16.859375 52.9375 17 53.554688 17.46875 53.847656 C 20.152344 55.527344 22.140625 56.003906 23.964844 56.003906 C 25.066406 56.003906 26.105469 55.828125 27.207031 55.648438 C 28.496094 55.433594 29.832031 55.210938 31.519531 55.210938 C 33.214844 55.210938 34.648438 55.425781 36.035156 55.636719 C 39.207031 56.113281 42.199219 56.5625 46.53125 53.847656 C 47 53.554688 47.144531 52.9375 46.847656 52.46875 C 46.628906 52.117188 46.226562 51.949219 45.84375 52.011719 Z M 45.84375 52.011719 "/>
</g>
</svg>
