<?xml version="1.0" encoding="UTF-8"?>
<svg xmlns="http://www.w3.org/2000/svg" xmlns:xlink="http://www.w3.org/1999/xlink" width="64pt" height="64pt" viewBox="0 0 64 64" version="1.1">
<g id="surface9371750">
<path style=" stroke:none;fill-rule:nonzero;fill:rgb(21.568627%,27.843137%,46.666667%);fill-opacity:1;" d="M 15.472656 5.949219 C 12.648438 5.949219 10.316406 8.101562 10.027344 10.855469 C 10.023438 10.902344 10 10.949219 10 11 L 10 55 C 10 56.652344 11.347656 58 13 58 L 51 58 C 52.652344 58 54 56.652344 54 55 L 54 11 C 54 10.945312 53.980469 10.902344 53.96875 10.851562 C 53.683594 8.097656 51.351562 5.949219 48.523438 5.949219 C 45.753906 5.949219 43.585938 7.632812 43.101562 10.003906 L 20.894531 10.003906 C 20.414062 7.632812 18.246094 5.949219 15.472656 5.949219 Z M 15.472656 7.949219 C 17.171875 7.949219 19 8.902344 19 11 C 19 11.550781 19.445312 12 20 12 L 44 12 C 44.554688 12 45 11.550781 45 11 C 45 8.902344 46.828125 7.949219 48.527344 7.949219 C 50.441406 7.949219 52 9.507812 52 11.421875 L 52 55 C 52 55.550781 51.550781 56 51 56 L 13 56 C 12.449219 56 12 55.550781 12 55 L 12 42 L 41 42 C 41.554688 42 42 41.550781 42 41 C 42 40.449219 41.554688 40 41 40 L 12 40 L 12 11.421875 C 12 9.507812 13.558594 7.949219 15.472656 7.949219 Z M 32 14 C 23.179688 14 16 19.382812 16 26 C 16 32.617188 23.179688 38 32 38 C 40.820312 38 48 32.617188 48 26 C 48 19.382812 40.820312 14 32 14 Z M 32 16 C 39.71875 16 46 20.484375 46 26 C 46 31.515625 39.71875 36 32 36 C 24.28125 36 18 31.515625 18 26 C 18 20.484375 24.28125 16 32 16 Z M 26 22 C 24.894531 22 24 22.894531 24 24 C 24 25.105469 24.894531 26 26 26 C 27.105469 26 28 25.105469 28 24 C 28 22.894531 27.105469 22 26 22 Z M 38 22 C 36.894531 22 36 22.894531 36 24 C 36 25.105469 36.894531 26 38 26 C 39.105469 26 40 25.105469 40 24 C 40 22.894531 39.105469 22 38 22 Z M 30 28 C 29.445312 28 29 28.449219 29 29 C 29 30.652344 30.347656 32 32 32 C 33.652344 32 35 30.652344 35 29 C 35 28.449219 34.554688 28 34 28 C 33.445312 28 33 28.449219 33 29 C 33 29.550781 32.550781 30 32 30 C 31.449219 30 31 29.550781 31 29 C 31 28.449219 30.554688 28 30 28 Z M 45 40 C 44.445312 40 44 40.449219 44 41 C 44 41.550781 44.445312 42 45 42 L 49 42 C 49.554688 42 50 41.550781 50 41 C 50 40.449219 49.554688 40 49 40 Z M 16 50 C 15.445312 50 15 50.449219 15 51 L 15 53 C 15 53.550781 15.445312 54 16 54 C 16.554688 54 17 53.550781 17 53 L 17 51 C 17 50.449219 16.554688 50 16 50 Z M 21 50 C 20.445312 50 20 50.449219 20 51 L 20 53 C 20 53.550781 20.445312 54 21 54 C 21.554688 54 22 53.550781 22 53 L 22 51 C 22 50.449219 21.554688 50 21 50 Z M 26 50 C 25.445312 50 25 50.449219 25 51 L 25 53 C 25 53.550781 25.445312 54 26 54 C 26.554688 54 27 53.550781 27 53 L 27 51 C 27 50.449219 26.554688 50 26 50 Z M 31 50 C 30.445312 50 30 50.449219 30 51 L 30 53 C 30 53.550781 30.445312 54 31 54 C 31.554688 54 32 53.550781 32 53 L 32 51 C 32 50.449219 31.554688 50 31 50 Z M 36 50 C 35.445312 50 35 50.449219 35 51 L 35 53 C 35 53.550781 35.445312 54 36 54 C 36.554688 54 37 53.550781 37 53 L 37 51 C 37 50.449219 36.554688 50 36 50 Z M 41 50 C 40.445312 50 40 50.449219 40 51 L 40 53 C 40 53.550781 40.445312 54 41 54 C 41.554688 54 42 53.550781 42 53 L 42 51 C 42 50.449219 41.554688 50 41 50 Z M 46 50 C 45.445312 50 45 50.449219 45 51 L 45 53 C 45 53.550781 45.445312 54 46 54 C 46.554688 54 47 53.550781 47 53 L 47 51 C 47 50.449219 46.554688 50 46 50 Z M 46 50 "/>
</g>
</svg>
