<?xml version="1.0" encoding="utf-8"?>
<!-- Generator: Adobe Illustrator 23.0.3, SVG Export Plug-In . SVG Version: 6.00 Build 0)  -->
<svg version="1.1" id="Layer_1" xmlns="http://www.w3.org/2000/svg" xmlns:xlink="http://www.w3.org/1999/xlink" x="0px" y="0px"
	 viewBox="0 0 595.28 595.28" style="enable-background:new 0 0 595.28 595.28;" xml:space="preserve">
<style type="text/css">
	.st0{fill:#6C4D74;}
	.st1{fill:#E07A4A;}
	.st2{fill:#D55D92;}
	.st3{fill:#CB5371;}
	.st4{fill:#96964F;}
	.st5{fill:#D9AC3D;}
	.st6{fill:#D04944;}
	.st7{fill:#B57C43;}
	.st8{fill:#459642;}
	.st9{fill:#603A17;}
</style>
<path class="st0" d="M172.14,436.81c-2.07-12.17-0.65-24.26,4.36-36.92c0.29-0.74,0.65-1.49,0.97-2.23l-1.62-0.77l3.18-2.78
	c0.16-0.34,0.35-0.68,0.52-1.02l-23.71-15.1l-3.67,28.18l6.66-1.58l-3.4,24.9l8.08-2.98l-2.57,18.38l11.87-4.86
	C172.57,438.95,172.32,437.88,172.14,436.81z M170.25,436.48l-2.26,0.83l-0.53-6.09L170.25,436.48z M163.34,418.01l-1.55-11.97
	l5.06,10.11L163.34,418.01z M160.65,388.19l4.44,6.91l-2.68,1.55L160.65,388.19z M170.56,406.66l-1.13-5.88l3.1,3.71L170.56,406.66z
	 M420.7,405.47l-25.06,14.95l7.51,3.76l-15.7,8.76l20.19,11.41l-11.61,20.37c-6.74-3.49-14.15-6.69-22.12-9.55
	c-1.12,1.2-2.33,2.41-3.71,3.63c-2.08,1.83-4.4,3.65-6.94,5.44c-15.84,11.21-36.26,16.62-45.37,5.76h-0.29l-0.75-1.41
	c-0.32-0.49-0.57-0.98-0.78-1.47c-4.07-7.74-8.35-14.6-12.71-20.4c-0.38-0.56-0.58-0.8-0.77-1.05c-1.77-2.31-3.53-4.38-5.27-6.31
	c-7.87-0.75-15.95-1.39-24.37-1.79c-8.72-0.41-18.42-0.03-28.79,1.06c-0.04,0.66-0.13,1.31-0.05,2.01c0.44,3.42,2.31,7.15,5.58,11.1
	c3.54,4.31,8.69,8.84,15.33,13.5l3.58,2.51l-1.85,3.96c-4.1,8.81-13.72,29.44-45.37,31.61l-2.06,0.14l-1.6-1.31
	c-7.77-6.35-14.69-12.82-20.55-19.21c-8.01-8.71-14.21-17.51-18.45-26.17c-0.39-0.79-0.72-1.6-1.08-2.39
	c-14.52,5.48-27.26,11.89-37.24,18.73l-11.19-17.47l23.11-16.08l-20.42-15.59l14.76-5.35l-38.58-20.85l9.03-3.59l-44.37-31.31
	l-3,55.65l8.13-6.43l-1.66,43.3l8.6-4.64l4.29,32.8l27.93-19.43l11.35,18.68c-10.72,10.32-15.57,21.11-14.29,32.08
	c1.07,9.28,5.19,15.99,12.25,19.97c20.52,11.56,59.62-3.98,68.85-7.93c11.93,24.82,47.07,37.08,77.26,38.22
	c1.66,0.06,3.3,0.09,4.91,0.09c23.25,0,40.8-6.48,46.38-17.34c2.36-4.59,3.54-11.97-2.8-22.11c71.33,11.51,109.53,7.99,116.76-10.74
	c3.08-8.05-4.17-26.63-29.54-43.29l9.96-21.5l20.77,11.74l-0.47-22.88l8.36,3.64l-1.58-23.84l7.56,3.62l2.24-43.93l-41.77,21.3
	L420.7,405.47z M435.01,418.73l-2.99,14.14l-5.06-3.18L435.01,418.73z M423.76,412.44l-9.39,11.35l-4.75-3.1L423.76,412.44z
	 M417.19,431.63l-2,9.47l-4.7-2.97L417.19,431.63z M441.23,399.13l-4.93-3.1l9.86-6.4L441.23,399.13z M446.15,413.99l-4.93-2.27
	l4.1-5.47L446.15,413.99z M399.44,484.7l-3.27,18.34c-5.83,2.29-11.66,2.29-17.49,0l-3.27-18.34l8.79,13.24l3.23-15.54l3.23,15.54
	L399.44,484.7z M308.11,501.92l-5.37,30.12c-9.58,3.76-19.15,3.76-28.73,0l-5.37-30.12l14.43,21.75l5.3-25.53l5.3,25.53
	L308.11,501.92z M148.78,489.26l8.79,13.24l3.23-15.54l3.23,15.54l8.79-13.24l-3.27,18.34c-5.83,2.29-11.66,2.29-17.49,0
	L148.78,489.26z M108.58,411.54l11.01,11.8l-5.37,3.75L108.58,411.54z M112.16,457.77l-6.33,4.4l-3.71-17.2L112.16,457.77z
	 M96.75,395.04l-6.19,4.82l-7.15-18.99L96.75,395.04z M96.06,425.58l-5.98,4.4l-2.68-14.58L96.06,425.58z M125.79,458.05
	l11.22,17.51c-1.93,1.43-3.75,2.89-5.48,4.39l-11.06-18.2L125.79,458.05z M404.62,469.54c-1.55-0.95-3.19-1.89-4.9-2.83l11.56-20.29
	l3.21,1.81L404.62,469.54z M380.84,556.1c0.25,1.72,0.07,4.94-4.06,7.23c-3.42,1.89-8.85,2.71-14.73,2.71
	c-10.56,0-22.58-2.64-27.01-6.43c-2.72-2.32-2.4-4.66-1.97-5.84c2.85-7.84,16.25-10.75,28.06-9.55
	C372.53,545.37,379.9,549.81,380.84,556.1z M525.53,302.05l-10.39,32.99c-0.9,2.86-5.59,3.92-10.47,2.38
	c-4.88-1.52-8.1-5.09-7.2-7.95c0.9-2.84,5.57-3.9,10.45-2.38c1.84,0.58,3.42,1.44,4.65,2.44l4.13-17.38l-27.83-5.22l-2.73,25.29
	c0.02,0.42-0.02,0.84-0.15,1.23c-0.9,2.86-5.57,3.92-10.45,2.38c-4.88-1.54-8.1-5.09-7.2-7.95c0.9-2.84,5.57-3.9,10.45-2.38
	c1.9,0.6,3.55,1.5,4.8,2.57l2.17-27.67L525.53,302.05z M235.66,178.43c0.24,0.16,0.34,0.46,0.26,0.72
	c-1.31,4.39-3.06,8.66-5.55,12.67c-1.25,2.02-2.65,3.98-4.81,5.69c-1.09,0.81-2.51,1.7-4.61,1.6c-2.19-0.13-3.76-1.82-4.37-3.1
	c-2.37-5.32-1.63-9.95-1.1-14.57c0.64-4.6,1.92-9.02,3.48-13.31c0.1-0.26,0.39-0.4,0.65-0.3c0.22,0.08,0.35,0.31,0.33,0.54
	c-0.5,4.5-0.93,8.96-1.04,13.36c-0.07,2.2-0.01,4.39,0.22,6.49c0.19,2.06,0.61,4.23,1.4,5.54c0.44,0.67,0.7,0.74,0.81,0.77
	c0.19,0.08,0.89-0.18,1.61-0.66c1.47-0.99,2.92-2.62,4.26-4.27c2.65-3.41,5.05-7.2,7.57-10.97
	C234.97,178.32,235.37,178.24,235.66,178.43z M318.34,204.59c0.22,0.15,0.31,0.42,0.24,0.67c-1.25,4.42-2.98,8.69-5.46,12.72
	c-1.24,2.03-2.66,3.98-4.83,5.71c-1.11,0.79-2.54,1.71-4.67,1.58c-2.23-0.15-3.76-1.89-4.39-3.16c-2.38-5.34-1.61-9.96-1.13-14.6
	c0.63-4.6,1.86-9.04,3.36-13.34c0.13-0.37,0.53-0.56,0.9-0.44c0.32,0.11,0.51,0.44,0.47,0.76c-0.55,4.47-1.03,8.93-1.16,13.32
	c-0.11,4.24,0.04,9.1,1.58,12c0.42,0.68,0.7,0.71,0.78,0.73c0.15,0.07,0.85-0.16,1.55-0.65c1.46-0.97,2.89-2.6,4.25-4.24
	c2.67-3.39,5.07-7.17,7.66-10.91C317.69,204.47,318.06,204.4,318.34,204.59z M192.26,377.99c-5.67,8.01-9.9,15.56-12.85,23.05
	c-4.79,12.12-6.16,23.65-4.19,35.25c1.07,6.37,3.2,12.82,6.32,19.14c4.1,8.38,10.14,16.94,17.95,25.43
	c5.76,6.28,12.57,12.64,20.22,18.9l0.64,0.53l0.83-0.06c29.81-2.04,38.88-21.5,42.75-29.81l0.74-1.59l-1.43-1
	c-6.87-4.82-12.24-9.55-15.95-14.06c-3.66-4.42-5.77-8.69-6.28-12.7c-1.44-11.37,10.62-18.26,15.88-20.69
	c10.78-5.02,29.08-1.5,48.16,23.38c0.25,0.32,0.51,0.64,0.81,1.1c4.48,5.96,8.87,13,13.03,20.92c0.04,0.07,0.1,0.12,0.15,0.18
	c0.21,0.47,0.41,0.94,0.77,1.44c2.79,3.77,7.25,5.37,12.49,5.37c8.87,0,19.99-4.58,29.16-11.06c2.44-1.74,4.68-3.49,6.67-5.23
	c6.6-5.84,10-11.39,9.85-16.03c-0.05-1.66-0.61-3.14-1.54-4.43c10.76-9.38,20.61-27.4,26.86-49.23c0.95,0.35,2.01,0.52,3.11,0.55
	c0.12,0,0.21,0.06,0.33,0.06c0.86,0,1.75-0.11,2.63-0.31c4.02-0.97,7.08-3.88,8.4-8.01c2.36-7.46,1.98-13.98-1.06-17.91
	c-0.89-1.15-2.38-2.33-4.5-3.11c-0.89-0.33-1.92-0.54-3.08-0.66c4.18-37.16-4.63-66.26-21.3-69.53
	c-9.37-1.82-19.85,4.86-29.16,18.36c-1.16-3.73-2.47-7.24-3.97-10.47c19.2-6.31,32.86-19.86,40.72-40.32
	c0.58,1.24,1.19,2.48,1.92,3.67c5.19,8.49,14.13,15.57,25.37,19.78c7.1,2.65,14.43,3.96,21.74,3.96c12.42,0,24.74-3.78,35.64-11.19
	c34.56-23.47,37.38-82.72,16.74-118.03c-7.97-13.64-21.53-21.82-38.19-23.03c-21.05-1.51-43.64,8.52-60.3,26.46
	c-0.78,0.84-1.55,1.7-2.31,2.58c-6.79-16.37-18.6-27.41-37.77-35.3c0.09-0.85,0.19-1.95,0.31-3.28c0.78-8.77,1.96-26.49-0.61-32.85
	c-1.93-4.75-10.31-7.62-17.69-9.28c0.56-6.46,2.3-11.01,5.45-13.66c5.41-4.55,14.62-3.42,23.51-2.32
	c10.54,1.3,21.33,2.51,26.99-5.44c0.48,0.07,0.91,0.23,1.42,0.23c2.58,0,5.54-0.94,8.61-2.75c10.46-6.18,7.49-23.07,7.35-23.79
	l-0.36-1.96l-1.97,0.27c-0.76,0.11-18.61,2.64-21.47,14.28c-1.51,6.19,0.02,10.08,2.43,12.1c-4.5,5.07-13.24,4.06-22.5,2.91
	c-9.79-1.2-19.91-2.45-26.71,3.28c-3.94,3.32-6.13,8.66-6.85,16.02c-6.9-1.22-16.48-2.17-19.68-0.49
	c-3.76,1.97-7.32,9.35-13.28,22.2c-1.06,2.29-2.19,4.69-3.34,7.12c-0.47,0.99-0.95,1.99-1.43,2.99
	c-23.03-2.88-40.89-0.76-55.78,6.61c-0.19-1.07-0.33-2.13-0.59-3.19c-3.32-13.64-12.23-27.07-24.23-36.1
	c-9.54-7.18-25.44-15-47.02-11.5c-41.5,6.75-62.18,50.88-63.09,78.58c-0.57,17.27,9.58,37.14,25.26,49.45
	c10.97,8.62,23.85,13.04,37.41,13.04c3.93,0,7.92-0.41,11.93-1.16c1.03-0.19,2.06-0.41,3.09-0.65
	c-1.86,23.47,8.83,39.18,19.33,48.73c-11.69,5.03-24.86,5.28-37.43,0.68c-13.65-4.99-24.92-15.21-31.36-28.31
	c2.73-0.47,5.45-2.07,7.33-4.48c2.87-3.69,3.15-8.31,0.76-12.67c-2.53-4.59-7.17-7.14-12.07-6.62c-4.2,0.44-7.86,3.03-10.13,7.02
	c-1.82-1.78-4.41-3.25-7.39-3.64c-4.25-0.51-8.19,1.36-11.04,5.38c-3.29,4.65-3.07,10.72,0.56,15.46c2.79,3.64,6.83,5.54,10.74,5.23
	c1.33,11.53,10.19,60.49,64.55,73.25c2.24,0.49,4.39,0.89,6.55,1.28c-0.6,8.77,1.57,17.06,6.46,24.7
	c-3.48,15.74-2.96,29.05-1.74,37.96c-0.96,0.36-1.96,0.68-3.03,0.98c-7.51,2.09-17.37,2.53-26.55-1.64
	c-9.45-4.3-16.24-12.43-20.25-24.12c3.94-6.6,4.32-14.09,0.92-20.73c-4.31-8.44-13.87-13.78-25.56-14.29l-1.81-0.08l-0.33,1.79
	c-2.57,14-0.91,24.14,4.95,30.12c3.57,3.65,8.52,5.51,14.52,5.51c1.15,0,2.38-0.17,3.6-0.3c4.39,12.3,12.02,21.26,22.22,25.9
	c5.33,2.42,11.25,3.63,17.23,3.63c3.95,0,7.92-0.57,11.77-1.63c1.03-0.28,2.04-0.61,3.04-0.97
	C191.57,374.8,191.87,376.45,192.26,377.99z M121.87,338.09c-4.55-4.64-5.97-13.13-4.15-24.61c9.32,0.87,16.8,5.24,20.2,11.89
	c2.72,5.32,2.43,11.37-0.76,16.71C132.37,342.73,126.12,342.43,121.87,338.09z M118.55,226.32l-2.68,0.99
	c-3.26,1.21-6.65-0.79-8.57-3.28c-1.99-2.59-3.15-6.71-0.47-10.51c1.97-2.77,4.36-4,7.11-3.65c3.23,0.41,5.8,2.86,6.41,4.46
	l2.16,5.68l1.78-5.81c1.36-4.44,4.39-7.31,8.12-7.7c3.25-0.3,6.25,1.34,7.98,4.48c2.12,3.87,0.66,6.73-0.4,8.09
	c-1.71,2.2-4.62,3.45-6.78,2.88l-4.09-1.06l1.65,3.9c6.57,15.56,19.37,27.8,35.11,33.55c14.7,5.38,30.18,4.6,43.6-2.21l2.83-1.44
	l-2.45-2.03c-10.83-8.97-23.11-24.95-20.04-50.12c1.31-10.79,5.37-22.57,12.08-35c4.46-8.25,8.74-15.15,13.1-21.11
	c8.4-11.47,17.26-19.65,27.11-25.01c14.89-8.16,33.1-10.44,57.3-7.21c3.64,0.47,7.39,1.09,11.3,1.81
	c20.4,3.82,33.72,7.26,44.54,11.54c20.15,7.95,31.93,19.28,38.2,36.72c3.02,8.33,4.79,18.11,5.41,29.9
	c1.12,21.39-0.71,39.77-5.44,54.63c-7.08,22.34-20.75,36.81-40.55,43.14c-6.42-11.96-15-18.85-24.35-19.35
	c-10.7-0.59-21.06,7-29.28,21.31c-15.49-3.13-25.18-8.39-25.28-8.44l-1.29-0.71l-1.1,0.97c-0.09,0.08-9.63,8.35-27.34,13.84
	c-17.16,5.32-35.96,6.33-55.85,2.98c-2.68-0.46-5.4-0.99-8.18-1.6c-58.36-13.7-61.51-71.22-61.53-71.8L118.55,226.32z
	 M387.02,291.95c14.55,2.86,22.17,31.71,17.74,67.1c-0.51,4.03-1.18,8.16-1.98,12.27c-0.82,4.09-1.73,8.05-2.72,11.76
	c-6.27,23.29-16.67,42.4-27.83,51.12c-0.02,0.01-0.04,0.01-0.05,0.03c-4.97,3.9-9.72,5.43-14.11,4.54c-2.97-0.58-5.7-2.27-8.12-5
	c-3.06-3.47-5.61-8.69-7.44-15.06c11.99-13.95,20.01-38.09,21.49-65.04c0.8-15-0.53-29.57-3.79-42.28
	C369,297.42,378.75,290.33,387.02,291.95z M365.36,453.34c-1.87,1.64-3.99,3.31-6.32,4.95c-13.16,9.31-30.18,14.33-35.87,6.64
	c-0.22-0.31-0.37-0.57-0.49-0.91c-1.79-4.47,4.92-12.83,17.95-22.35c2.3-1.69,4.76-3,7.29-4.04c2.78,2.76,5.89,4.56,9.32,5.24
	c1.05,0.21,2.12,0.31,3.2,0.31c4.12,0,8.43-1.61,12.69-4.57c0.38,0.58,0.64,1.21,0.67,1.96
	C373.91,443.84,370.83,448.49,365.36,453.34z M259.41,470.22c-4.11,8.62-12.61,23.74-37.69,25.77c-5.66-4.67-10.82-9.38-15.42-14.06
	c0.4,0.01,0.77,0.04,1.17,0.04c9.66,0,21.5-2.61,29.96-9.09c4.79-3.67,7.89-8.18,9.41-13.38
	C250.19,463.02,254.39,466.61,259.41,470.22z M236.87,441.59c0.58,4.54,2.83,9.25,6.58,13.99c-0.84,5.53-3.67,10.26-8.56,14
	c-8.97,6.87-23.12,9.11-32.83,7.87c-7.27-8-12.93-16.02-16.77-23.86c-2.95-5.96-4.95-12.02-5.95-18
	c-1.84-10.83-0.55-21.63,3.95-33.02c2.74-6.96,6.67-14.01,11.9-21.48c19.28,10.16,47.7,12.39,68.49,12.39
	c11.84,0,21.08-0.7,24.8-1.02c5.25,20.07,14.8,33.4,26.28,37c-2.74,2.19-6.08,5.52-7.99,9.78c-19.99-24.98-39.69-28.19-51.63-22.66
	C249.05,419.4,235.08,427.47,236.87,441.59z M320.6,430.43c0.17,0,0.34,0.01,0.5,0.01c6.24,0,12.43-2.81,18.13-8.2
	c1.58,4.81,3.55,8.85,5.91,12.09c-2.41,1.09-4.76,2.36-6.97,3.98c-7.65,5.59-15.96,12.85-18.86,19.57
	c-3.1-5.42-6.29-10.32-9.49-14.64C311.5,436.45,318.69,431.6,320.6,430.43z M355.96,311.5c0,0.01,0,0.02,0,0.03
	c3.32,12.5,4.65,26.99,3.86,41.92c-1.44,26.22-9.55,50.53-21.19,63.44c-5.83,6.46-12.26,9.77-18.45,9.35
	c-12-0.67-22.77-14.66-28.12-36.52c-1.63-6.61-2.66-13.73-3.18-21.05c8.86-0.44,16.91-1.88,23.46-4.26
	c2.47,1.58,5.35,2.63,8.69,2.98c0.03,0.01,0.06,0.03,0.09,0.04c0.04,0.01,0.08,0,0.13,0.01c0.01,0,0.02,0,0.02,0.01
	c0.03,0,0.06,0,0.09,0c1.24,0.2,2.45,0.31,3.62,0.31c3.89,0,7.32-1.1,10.07-3.27c3.77-2.98,5.99-7.77,6.39-13.87
	c0.36-5.62-1.33-10.43-4.78-13.55c-3.23-2.92-7.79-4.14-12.52-3.43c-3.28-0.25-6.24,0.18-8.85,1.19c-8.07-0.07-16.3-1.3-24.49-3.58
	c2.28-12.87,6.14-24.61,11.29-33.97c7.53-13.73,16.82-21.08,26.21-20.49c8.22,0.44,15.94,7.07,21.74,18.67
	C352.4,300.18,354.39,305.57,355.96,311.5z M322.23,363.35c-2.37-1.37-4.95-5.41-5.23-10.56c-0.19-3.48,0.66-10,8.01-15.04
	c3.4-0.45,6.62,0.39,8.85,2.42c2.52,2.28,3.7,5.81,3.42,10.19c-0.32,4.88-1.99,8.64-4.81,10.87
	C329.89,363.27,326.35,363.98,322.23,363.35z M190.05,306.99c7.07,1.07,14.02,1.68,20.8,1.68c11.41,0,22.35-1.57,32.76-4.6
	c5.25,11.81,23.32,24.48,44.16,30.7c7.21,2.15,14.45,3.46,21.62,3.97c-2.49,2.56-4.22,5.83-4.67,9.61
	c-0.57,4.83,0.88,9.39,3.87,12.87c-6.29,1.96-13.78,3.16-22.06,3.41c-31.79,1.05-74.21-11.01-90.3-35.15
	C191.58,322.55,189.59,314.98,190.05,306.99z M413.79,377.8c-1.18,3.69-3.89,4.86-5.39,5.22c-0.28,0.07-0.55,0.08-0.83,0.11
	c-1.15,0.13-2.28,0.02-3.13-0.37c0.88-3.4,1.7-6.94,2.44-10.62c0.7-3.59,1.24-7.17,1.73-10.7c1.18,0.09,2.18,0.38,3.03,0.85
	c0.69,0.38,1.3,0.83,1.78,1.44C415.53,366.46,415.68,371.86,413.79,377.8z M458.33,134.75c15.24,1.11,27.63,8.55,34.89,20.97
	c19.32,33.07,16.73,90.61-15.48,112.48c-16.18,10.99-35.7,13.46-53.57,6.76c-11.52-4.31-20.58-12.14-24.86-21.1
	c-0.7-1.46-1.29-2.95-1.72-4.46c4.19-13.48,6.1-29.64,5.69-48.15c0.93-1.51,1.94-2.98,2.97-4.43c4.61-6.49,10.17-12.29,16.87-16.46
	c8.17-5.33,18.02-8.33,27.48-7.42c9.45,0.69,17.62,7.54,21.42,16.14c3.76,8.78,3.18,19.05,0.49,28.48
	c-1.34,4.76-3.18,9.46-5.7,13.43c-2.55,4.01-6.04,7.44-10.2,9.61c-4.13,2.17-8.94,3.07-13.34,2.16c-4.47-0.79-8.07-3.97-9.64-8.1
	c-2.82-8.51-1.1-20.14,7.06-24.57c1.97-1.1,4.23-1.76,6.46-1.84c2.25-0.14,4.35,0.34,5.89,1.79c3.14,2.95,2.96,8.71-0.06,12.57
	c-0.14,0.2-0.14,0.49,0.03,0.68c0.2,0.21,0.53,0.21,0.73,0.01c3.89-3.47,5.6-10.51,1.41-15.29c-2.03-2.32-5.23-3.36-8.06-3.32
	c-2.87,0-5.68,0.72-8.21,2.01c-5.15,2.54-8.75,7.74-9.93,13.16c-0.66,2.71-0.85,5.46-0.76,8.16c0.12,2.63,0.41,5.5,1.47,8.18
	c1.97,5.42,7.02,9.8,12.69,10.79c5.61,1.19,11.4,0.05,16.29-2.49c4.92-2.54,8.97-6.51,11.9-11.07c2.94-4.64,4.85-9.57,6.3-14.61
	c2.9-10.03,3.73-21.35-0.57-31.57c-4.28-9.98-13.97-18.14-25.16-19.04c-10.96-1.16-21.67,2.54-30.47,8.35
	c-5.74,3.69-10.59,8.47-14.79,13.76c-0.97,1.22-1.95,2.44-2.84,3.71c0-0.01,0-0.03,0-0.04c-0.61-11.67-2.36-21.44-5.27-29.89
	c0.77-0.94,1.6-1.79,2.39-2.68C416.08,143.49,438,133.4,458.33,134.75z M135.56,190.49c-14.68-11.54-24.19-30.04-23.67-46.04
	c0.86-26.32,20.4-68.22,59.59-74.6c20.13-3.27,34.95,4.03,43.84,10.71c11.53,8.68,19.97,21.65,22.87,34.7
	c0.24,1.09,0.43,2.19,0.59,3.28c-8.52,4.88-16.32,11.74-23.7,20.92c-0.13-1.39-0.37-2.77-0.6-4.15c-0.9-5.42-2.51-10.74-5.28-15.6
	c-4.38-7.8-11.84-14.06-20.62-16.46c-8.79-2.41-18.03-1.44-26.31,1.78c-4.3,1.41-8.04,4.17-11.45,7.12
	c-3.13,3.27-5.94,6.92-7.66,11.1c-3.6,8.24-4.45,17.55-2.39,26.31c1.09,4.36,2.87,8.7,6.1,12.28c3.33,3.46,7.51,5.92,12.57,6.45
	c5.06,0.41,10.1-2.04,13.12-5.76c3.12-3.68,4.8-8.33,4.86-13.04c0.16-4.7-2.25-10.18-7.26-11.83c-2.38-0.86-5.3-0.45-7.16,1.23
	c-1.9,1.62-2.76,3.87-3.19,6.01c-0.05,0.27,0.1,0.54,0.37,0.62c0.28,0.09,0.59-0.07,0.67-0.36c1.22-3.98,5.08-6.57,8.27-4.81
	c3.14,1.53,4.65,5.34,4.29,8.97c-0.57,7.45-6.52,14.88-13.65,14.27c-3.41-0.24-7.08-2.26-9.57-4.87c-2.52-2.68-4.11-6.41-5.07-10.23
	c-1.85-7.71-1.1-16.2,2.07-23.46c1.51-3.71,3.97-6.86,6.66-9.72c2.98-2.54,6.17-4.98,9.99-6.22c7.47-2.95,15.92-3.8,23.56-1.7
	c7.66,2.1,14.15,7.47,18.11,14.44c3.12,5.41,4.76,11.61,5.38,17.93c0.16,1.61,0.25,3.22,0.28,4.84
	c-4.32,5.97-8.56,12.82-12.96,20.96c-6.66,12.36-10.74,24.12-12.29,35.03c-1.12,0.29-2.23,0.58-3.32,0.8
	C161.07,205.86,145.25,198.11,135.56,190.49z M463.99,298.46c-0.3,1.11-1.44,1.8-2.56,1.46l-8.97-2.44l-6.58,11.38l-11.84-1.95
	l-6.39,9.67l-9.32-5.43c-1-0.58-1.33-1.86-0.75-2.86c0.58-0.99,1.86-1.33,2.85-0.75l5.91,3.45l5.71-8.64l11.66,1.93l6.74-11.66
	l12.06,3.28C463.63,296.21,464.29,297.35,463.99,298.46z M459.54,335.37c0.86,0.76,0.94,2.09,0.18,2.95
	c-0.41,0.47-0.98,0.7-1.56,0.7c-0.49,0-0.99-0.18-1.39-0.53l-8.12-7.22l-9.8,5.39l-6.09-5.16l-5.86,5.25l-6.74-4.33
	c-0.97-0.62-1.25-1.92-0.63-2.88c0.62-0.97,1.91-1.25,2.88-0.63l4.06,2.61l6.2-5.56l6.68,5.65l9.86-5.42L459.54,335.37z
	 M455.95,367.89c0.56,1.01,0.19,2.28-0.82,2.83c-0.32,0.18-0.67,0.26-1.01,0.26c-0.73,0-1.45-0.39-1.83-1.08l-4.56-8.25l-12.55,2.62
	l-4.04-7.88l-7.62,1.44l-5.85-8.07c-0.68-0.93-0.47-2.24,0.46-2.91c0.94-0.68,2.24-0.47,2.92,0.46l4.29,5.92l8.08-1.53l4.01,7.82
	l12.45-2.6L455.95,367.89z"/>
</svg>
