<?xml version="1.0" encoding="utf-8"?>
<!-- Generator: Adobe Illustrator 23.0.3, SVG Export Plug-In . SVG Version: 6.00 Build 0)  -->
<svg version="1.1" id="Layer_1" xmlns="http://www.w3.org/2000/svg" xmlns:xlink="http://www.w3.org/1999/xlink" x="0px" y="0px"
	 viewBox="0 0 595.28 595.28" style="enable-background:new 0 0 595.28 595.28;" xml:space="preserve">
<style type="text/css">
	.st0{fill:#6C4D74;}
	.st1{fill:#E07A4A;}
	.st2{fill:#D55D92;}
	.st3{fill:#CB5371;}
	.st4{fill:#96964F;}
	.st5{fill:#D9AC3D;}
	.st6{fill:#D04944;}
	.st7{fill:#B57C43;}
	.st8{fill:#459642;}
	.st9{fill:#603A17;}
</style>
<path class="st7" d="M318.13,198.93c-2.2-2.33-3.59-5.08-4.72-7.87c-0.17-0.42,0.03-0.9,0.46-1.07c0.29-0.12,0.62-0.05,0.84,0.14
	l0.05,0.04c2.23,1.92,4.2,3.97,6.36,5.49c2.03,1.57,4.49,2.69,5.77,2.31c1.14-0.07,2.44-1.74,3.16-4.16
	c0.75-2.38,1.09-5.12,1.62-8.04l0.01-0.04c0.09-0.47,0.54-0.78,1.01-0.7c0.29,0.05,0.53,0.25,0.64,0.51
	c1.24,2.82,1.83,5.95,1.43,9.27c-0.1,0.83-0.23,1.67-0.57,2.52c-0.23,0.84-0.67,1.69-1.17,2.53c-1.05,1.59-2.94,3.29-5.26,3.5
	c-2.22,0.29-4.26-0.35-5.74-1.27C320.42,201.22,319.22,200.08,318.13,198.93z M188.66,431.34c1.04,0.29,2.12,0.43,3.22,0.43
	c3.04,0,6.17-1.08,8.82-3.12c2.85-2.18,5.12-5.41,6.77-9.58c4.47-11.39,2.07-24.05-0.52-33.79c-0.56-2.12-1.16-4.24-1.76-6.35
	c-2.32-8.19-4.72-16.66-4.61-25.07c0.03-2.03,0.21-4.64,1.31-6.77c0.34-0.66,0.78-1.21,1.25-1.69c-0.07,0.46-0.1,0.92-0.05,1.4
	c0.16,1.47,0.88,2.78,2.03,3.71c0.99,0.8,2.2,1.22,3.45,1.22c0.2,0,0.41-0.01,0.61-0.03c2.97-0.33,5.12-2.97,4.89-5.92
	c0-0.02,0.01-0.04,0.01-0.06c0-0.02-0.01-0.03-0.01-0.05c0-0.02,0-0.04,0-0.06v0c-0.01-0.08-0.04-0.15-0.05-0.23
	c-0.2-1.69-1.03-3.27-2.42-4.47c-1.64-1.42-3.79-2.13-5.88-1.98c-3.34,0.25-6.49,2.52-8.23,5.93c-1.56,3.03-1.81,6.37-1.85,8.95
	c-0.13,9.13,2.37,17.95,4.79,26.48c0.59,2.09,1.19,4.18,1.74,6.27c2.39,9.02,4.64,20.67,0.69,30.73c-1.31,3.33-3.06,5.84-5.18,7.47
	c-2.35,1.8-5.31,2.51-7.72,1.85c-2.31-0.65-4.1-2.72-4.28-4.84c0.92,1.05,2.24,1.76,3.74,1.87c0.14,0.01,0.27,0.01,0.41,0.01
	c2.86,0,5.29-2.22,5.5-5.12v0c0.11-1.47-0.37-2.89-1.33-4.01c-0.91-1.05-2.16-1.7-3.54-1.85c-0.02,0-0.03-0.02-0.05-0.02
	c-0.03,0-0.05,0-0.08,0c-0.04,0-0.07-0.02-0.11-0.02c-0.08,0-0.15,0.01-0.23,0.01c-2.1-0.19-4.29,0.5-6.03,1.99
	c-2,1.7-3.21,4.2-3.24,6.68C180.66,425.72,184.06,430.05,188.66,431.34z M458.97,535.41c-1.18,4.27-4.47,7.96-9.5,10.57
	c-12.75,6.62-37.33,6.11-63.82-9.71c-27.61,11.51-58.4,16.34-82.16,16.34c-18.64,0-32.95-2.97-38.01-8.02
	c-1.28-1.27-2.05-2.7-2.3-4.2c-25.43,3.86-148.49,21.25-161.67-1.7c-3.26-5.67-4.07-11.21-2.42-16.44
	c2.13-6.7,8.16-12.68,18.33-18.19c-8.94-4.06-15.87-12.52-17.68-22.23c-1.91-10.31,1.99-21.33,9.65-28.31
	c-7.55-3.27-13.75-9.79-16.42-17.58c-3.19-9.29-1.28-20.27,4.87-27.97c5.24-6.54,13.19-10.71,21.23-11.37
	c-2.11-4.33-2.18-9.73,0.11-14.32c2.8-5.68,8.79-9.67,15.63-10.39c5.22-0.54,10.16,0.51,14.72,3.1c0.81-1.53,1.62-3.09,2.4-4.53
	c4.22-7.9,7.86-14.73,8.15-18.77l0.36-5.11l3.77,3.47c1.75,1.61,6.23,4.51,10.65,3.9c3.04-0.42,5.71-2.47,7.94-6.09
	c2.63-4.27,2.88-9.18,0.7-13.83c-3.71-7.9-13.32-13.66-25.7-15.41l-1.26-0.18l-0.59-1.13c-22.8-43.93,7.53-73.44,31.9-97.14
	c3.92-3.82,7.66-7.45,11.07-11.02c-8.44-7.07-12.3-16.53-10.61-26.32c1.72-10.03,9.23-18.64,18.68-21.42
	c1.23-0.36,2.43-0.59,3.61-0.75l-3.13-54.88c-11.82-5.5-15.98-14.65-13.89-21.11c1.03-3.19,3.51-5.29,6.7-5.94
	c-5.14-9.04-4.22-16.12-1.31-19.98c1.88-2.5,4.63-3.84,7.66-3.86c-0.61-4.38,0.16-8.61,2.2-11.6c1.88-2.75,4.69-4.32,8.13-4.54
	c4.12-0.26,7.75,1.33,9.95,4.38c2.05,2.84,2.73,6.6,2.01,10.71c3.3-0.4,6.32,0.56,8.46,2.82c2.09,2.21,5.84,8.67-1.06,22.87
	c2.84,0.22,5.02,1.5,6.18,3.73c2.77,5.31-1.42,13.62-10.88,21.88l8.21,81.57c2.56,6.22,12.43,13.72,23.84,22.39
	c2,1.52,4.05,3.09,6.13,4.69c-0.27-3.8-0.25-7.59-0.03-11.33c0.36-5.42,1.04-10.71,2.09-16.08c-8.61-16.14-13.96-33.72-16.96-51.61
	c-1.48-9.11-2.33-18.34-2.08-27.66c0.14-4.66,0.56-9.34,1.6-14.02c0.53-2.34,1.24-4.68,2.31-6.97c1.08-2.26,2.55-4.63,5.09-6.3
	c2.59-1.68,5.98-2.02,8.9-0.67c2.97,1.44,4.51,4.09,5.49,6.38c1.93,4.75,2.46,9.43,2.96,14.05c0.85,9.25,0.88,18.37,1.15,27.45
	c0.25,9.07,0.61,18.11,1.72,27c1.06,8.11,2.68,16.28,6.18,23.34l2.74-1.01c-1.39-7.83-2.25-15.68-2.82-23.56
	c-0.56-8.58-0.89-17.13-0.39-25.85c0.19-2.24,0.26-4.29,1-6.9c0.15-0.39,0.22-0.69,0.55-1.26c0.25-0.39,0.47-0.68,0.68-0.93
	c0.42-0.5,0.83-0.94,1.23-1.34c0.81-0.82,1.63-1.56,2.45-2.29c3.3-2.89,6.71-5.52,10.19-8.07c6.98-5.06,14.22-9.75,21.9-13.79
	c3.85-2,7.82-3.85,12.03-5.29c4.22-1.33,8.69-2.66,13.86-1.65c2.55,0.5,5.27,2.24,6.65,4.67c1.39,2.19,2.05,5.11,1.61,7.75
	c-0.95,5.35-4.33,8.93-7.52,12.01c-6.67,6.03-14.29,10.28-22,14.16c-7.2,3.54-14.56,6.62-22.19,9.21
	c0.08,6.25,0.44,12.56,0.98,18.82c0.3,3.42,0.68,6.83,1.15,10.21c0.24,1.69,0.51,3.36,0.83,4.99c0.16,0.74,0.33,1.53,0.51,2.27
	c17.43-6.65,34.92-13.18,52.51-19.49c9.22-3.24,18.46-6.43,27.87-9.3c4.76-1.4,9.36-2.84,14.64-3.68c0.67-0.1,1.38-0.17,2.2-0.18
	c0.42,0,0.84,0,1.45,0.1c0.25,0.03,0.67,0.14,1.06,0.28c0.49,0.19,1.06,0.56,1.42,0.95c0.66,0.73,0.86,1.2,1.06,1.63
	c0.2,0.44,0.33,0.81,0.45,1.18c0.24,0.74,0.39,1.42,0.54,2.1c0.53,2.68,0.72,5.23,0.8,7.8c0.19,20.36-6.68,40.11-17.93,56.64
	c-5.66,8.26-12.45,15.71-20.05,22.16c-2.93,2.55-6.06,4.96-9.39,7.09c0.03,1.71-0.01,3.54-0.09,5.27
	c3.85-0.35,10.24-0.11,14.88,4.35c5.09,4.9,6.46,13.32,4.08,25.04c-1.06,5.23-3.13,10.4-6.1,15.39c1.56,9.45,3.23,22.13,4.98,37.73
	c5.19-2.3,10.22-2.71,14.44-1.1c3.09,1.18,5.6,3.41,7.33,6.41c5.68-7.62,16.79-10.93,26.36-7.37c9.55,3.55,16.77,13.36,17.95,24.43
	c0.88,8.26-1.39,17.24-6.3,25.22c4.66,0.36,9.36,1.41,12.86,4.63c2.3,2.09,3.98,5.07,5.01,8.85c2.09,7.78,0.53,16.44-3.88,23.17
	c6.62,0.31,13.23,3.91,17.22,9.84c4.75,7.06,5.4,17.06,1.65,25.47c-0.9,2.02-2.28,4.41-4.32,6.29c0.76,0.6,1.46,1.32,2.06,2.11
	c1.66,2.21,2.47,4.72,2.93,6.42c1.94,7.11,1.44,14.36-1.4,20.41c-2.01,4.3-5.28,7.87-9.16,10.25
	c33.15,10.75,35.68,22.94,34.04,29.48C499.84,530.99,478.59,538.71,458.97,535.41z M437.03,511.65c-0.44-0.2-1.01-0.42-1.72-0.66
	c-10.54-3.61-17.97-13.29-22.72-29.61c0-0.01-0.01-0.03-0.01-0.05c0,0,0,0,0,0c-4.62-15.92-6.93-38.81-7.05-69.92h-15.09l0.54,13.06
	c0.3,5.18,0.42,10.37,0.8,15.54c0.36,5.17,0.63,10.35,1.18,15.49c0.47,5.15,1.04,10.29,2.29,15.27l0.01,0.03
	c0.08,0.32-0.11,0.64-0.43,0.71c-0.27,0.07-0.55-0.07-0.67-0.31c-2.42-4.81-3.66-10.02-4.8-15.17c-1-5.18-1.85-10.39-2.41-15.62
	c-0.52-5.23-1.08-10.46-1.29-15.7c-0.23-4.43-0.33-8.86-0.27-13.31h-36.64c-0.37,5.63-0.89,11.2-1.55,16.77
	c-0.8,6.37-1.65,12.76-3.31,19c-0.06,0.23-0.29,0.36-0.52,0.3c-0.21-0.06-0.34-0.28-0.31-0.49c0.97-6.26,1.13-12.65,1.25-19.01
	c0.06-5.53-0.02-11.08-0.24-16.58h-6.84c1.55,14.2-2.17,27.14-11.48,39.44c-8.5,11.21-21.07,20.9-36.36,28.11
	c-1.19,12.67-3.44,21.86-6.72,27.27c-4.09,6.69-8.7,10.46-12.16,12.66c4.05,0.32,7.88,0.01,11.58-0.65
	c4.51-4.28,8.51-9.11,11.48-14.6c1.56-2.86,2.84-5.89,3.85-9.02c1.04-3.13,1.76-6.38,2.53-9.67c0.1-0.42,0.52-0.69,0.95-0.59
	c0.4,0.09,0.66,0.49,0.6,0.89c-0.49,3.3-0.94,6.68-1.75,10.02c-0.78,3.34-1.86,6.63-3.26,9.8c-1.74,3.98-4.01,7.7-6.59,11.2
	c5.15-1.68,10.07-3.9,14.91-6.11c4.66-2.13,9.2-4.18,13.79-5.68c2.49-6.09,4.16-12.66,5.38-19.3c1.25-7.05,2.09-14.23,2.44-21.42
	l0-0.02c0.02-0.34,0.3-0.6,0.64-0.58c0.32,0.02,0.57,0.27,0.58,0.59c0.27,7.28,0.04,14.56-0.61,21.84
	c-0.57,5.82-1.46,11.64-2.99,17.4c3.47-0.74,6.99-1.07,10.64-0.74c12.39,1.11,17.29,4.5,21.6,7.49c3.63,2.51,6.76,4.68,14.37,5.44
	c8.81,0.91,10.04-4.13,10.65-10.27c0.15-1.52,0.34-2.87,0.96-3.85c-0.99-3.36-1.65-6.77-2.21-10.16c-0.62-4.12-1.03-8.24-1.31-12.36
	c-0.22-4.13-0.43-8.24-0.41-12.37c-0.01-4.12,0.08-8.24,0.4-12.36c0.03-0.4,0.38-0.71,0.79-0.67c0.35,0.03,0.63,0.3,0.67,0.64
	l1.55,12.17c0.56,4.05,0.98,8.09,1.62,12.11c0.58,4.02,1.13,8.03,1.87,11.99c0.63,3.68,1.36,7.32,2.22,10.87
	c9.18,5.75,19.62,8.9,28.71,10.39c-1.22-0.92-2.41-1.9-3.52-2.95c-2.03-1.96-3.93-4.06-5.48-6.42c-1.57-2.34-2.89-4.8-3.66-7.6
	c-0.12-0.45,0.14-0.91,0.58-1.03c0.37-0.1,0.76,0.06,0.94,0.38l0.05,0.08c1.28,2.16,2.97,4.21,4.73,6.05
	c1.81,1.83,3.73,3.52,5.76,5.05c2.1,1.45,4.21,2.87,6.45,4.08c2.15,1.24,4.39,2.31,6.62,3.47
	C432.3,512.42,435.22,512.13,437.03,511.65z M411.21,390.86c-1.69-2.32-4.36-3.5-7.02-3.41c-0.9,2.51-0.58,5.41,1.11,7.73
	s4.36,3.5,7.02,3.41C413.22,396.07,412.9,393.17,411.21,390.86z M374.67,392.42l-8.47,0.52v13.53h8.47V392.42z M421.25,367.47
	c6.09-0.35,11.89-3.62,15.25-9.26c3.35-5.63,3.46-12.3,0.87-17.82c-6.09,0.35-11.89,3.62-15.25,9.26
	C418.77,355.29,418.66,361.95,421.25,367.47z M430.36,441.16c-1.99,5.76-1.18,12.38,2.75,17.62c3.93,5.25,10.05,7.88,16.14,7.59
	c1.99-5.76,1.18-12.38-2.75-17.62C442.57,443.51,436.45,440.87,430.36,441.16z M434.06,420.12c3.24,0.49,6.66-0.58,9.04-3.17
	c2.39-2.59,3.18-6.08,2.44-9.27c-3.24-0.49-6.66,0.58-9.04,3.17C434.11,413.44,433.32,416.93,434.06,420.12z M315.34,359.68
	c1.25,2.27,2.59,4.61,3.96,7.02c1.59,2.77,3.19,5.63,4.78,8.54l1.34-8.13h30.02l3.47,21.33l2.34-0.15v0l16.4-1l3.49-0.22v-34.69
	c-12.18,6.65-28.12,10.98-43.41,10.98C329.9,363.36,322.23,362.22,315.34,359.68z M386.62,329.74c1.04,9.78,1.68,16.69,1.68,16.69
	l0.13,1.43l-1.18,0.82c-0.37,0.26-0.78,0.51-1.17,0.77v3.74c4.45,2.54,8.85,2.81,12.52,0.68c4.5-2.61,7.26-8.45,6.88-14.52
	c-0.09-1.55-0.36-3.03-0.8-4.42c-1.07-3.41-3.14-5.79-5.96-6.87C395.39,326.78,391.13,327.39,386.62,329.74z M367.87,247.04
	c-0.2,2.36-0.52,5.53-1.01,9.4c0,0.02-0.02,0.04-0.02,0.06l-0.02,0.18c0,0.01,0,0.01,0,0.02l0,0.04l-1.56,10.49l-0.25,0.42
	c-2.1,3.55-4.78,7-7.95,10.24c-2.8,2.89-6,5.63-9.5,8.13c-0.01,0-0.01,0.01-0.02,0.01c0,0,0,0-0.01,0
	c-11.17,8.06-25.09,13.83-40.23,16.67c-0.1,0.02-0.21,0.03-0.31,0.05c-0.06,0-0.11,0.04-0.17,0.04c-0.01,0-0.02-0.01-0.03-0.01
	c-8.74,1.61-17.7,2.19-26.67,1.71c-0.08,0.25-0.18,0.53-0.27,0.83c-1.38,4.42-3.11,11.34-3.46,19.06c-0.03,0.48-0.04,0.97-0.06,1.46
	c2.24,0.05,4.53,0.06,6.92,0.02c41.67-0.76,78.23-16.78,93.14-40.8c2.94-4.75,4.94-9.67,5.94-14.62c2.02-9.96,1.13-16.86-2.67-20.51
	C376.09,246.51,370.63,246.67,367.87,247.04z M274.55,305.87c-4.63-2.1-8.75-2.38-11.98-0.77c-2.97,1.48-5.01,4.5-5.58,8.29
	c-0.42,2.8,0.57,5.35,2.78,7.18c2.88,2.37,7.3,3.02,11.81,1.84C272.04,315.97,273.33,310.16,274.55,305.87z M334.02,277.2
	l11.65,4.05c2.54-1.89,4.89-3.9,7.02-6.01l-2.47-18.59l-15.38,11.09l-0.13,1.43L334.02,277.2z M329.8,268.86h-4.48l1.13,10.05
	l2.52-0.45l0.69-7.96L329.8,268.86z M311.38,261.61c2.48,7.02,3.34,14.1,2.63,21.37l7.42-4.47l-1.2-10.73L311.38,261.61z
	 M259.76,133.96c2.96,17.68,8.31,35.13,16.82,50.82l0.43,0.8l-0.19,0.91c-1.07,5.28-1.79,10.81-2.14,16.25
	c-0.31,5.15-0.23,10.32,0.53,15.28c11.09,8.84,24.46,20.66,32.22,34.84l15.89,11.06h8.36l22.34-16.1l1.4,10.54
	c2.94-1.04,5.41-2.54,6.63-3.36l1.09-10.8c0.11-1.67,0.19-3.23,0.22-4.62c-3.72,1.91-7.64,3.41-11.78,4.24
	c-0.33,0.07-0.65-0.15-0.71-0.48c-0.05-0.26,0.07-0.51,0.27-0.64l0.02-0.01c4.15-2.57,8.12-5.23,11.94-8.06
	c0.26-0.21,0.54-0.42,0.8-0.63c0.24-0.3,0.53-0.54,0.89-0.7c3.17-2.5,6.42-4.96,9.46-7.62c7.21-6.24,13.6-13.4,18.88-21.28
	c10.53-15.71,16.72-34.64,16.44-53.37c-0.06-2.31-0.24-4.63-0.66-6.74c-0.1-0.49-0.22-0.96-0.34-1.37
	c-0.34,0.02-0.68,0.03-1.08,0.09c-4.37,0.67-9.13,2.09-13.72,3.44c-9.25,2.8-18.46,5.95-27.65,9.14l-55.15,19.43l-2.26,0.8
	l-0.81-2.05l0,0c-0.92-2.1-1.18-3.76-1.59-5.57c-0.34-1.77-0.63-3.52-0.87-5.26c-0.49-3.49-0.87-6.98-1.18-10.46
	c-0.6-6.98-1.03-13.93-1.06-20.99l-0.01-1.79l1.72-0.56c7.92-2.59,15.75-5.85,23.26-9.55c7.46-3.75,14.86-7.94,20.84-13.36
	c2.9-2.68,5.51-5.92,6-9.11c0.24-1.57-0.08-3.06-0.95-4.48c-0.77-1.29-1.91-2.04-3.52-2.42c-3.27-0.71-7.39,0.25-11.18,1.51
	c-3.85,1.31-7.63,3.06-11.33,4.99c-7.39,3.88-14.48,8.47-21.28,13.4c-3.39,2.48-6.73,5.06-9.83,7.78c-0.77,0.68-1.53,1.37-2.21,2.07
	c-0.69,0.7-1.36,1.44-1.27,1.57c-0.44,1.49-0.63,3.72-0.77,5.72c-0.48,8.29-0.17,16.79,0.39,25.19c0.6,8.41,1.52,16.82,3.09,25.03
	l0.39,2.06l-1.96,0.72l-6.71,2.48l-1.98,0.73l-1.01-1.82c-4.75-8.52-6.52-17.88-7.74-27.02c-1.14-9.18-1.5-18.36-1.76-27.48
	c-0.27-9.11-0.31-18.22-1.13-27.11c-0.45-4.39-1.05-8.88-2.59-12.59c-0.76-1.84-1.85-3.32-3.06-3.86c-1.22-0.56-2.93-0.47-4.14,0.36
	c-2.68,1.77-4.32,6.13-5.25,10.22c-0.94,4.21-1.35,8.64-1.48,13.07C257.51,116.13,258.32,125.11,259.76,133.96z M240.82,196.49
	l10.15,100.69l-2.9,0.28l5.38,54.54l8.58-0.81l-2.3,17.88l-4.54,0.55l4.12,41.78l2.54-0.29l-4.78,73.37
	c10.2-2.11,19.95-5.23,29-9.39c15.15-6.93,27.52-16.35,35.77-27.24c9.06-11.96,12.41-24.54,10.24-38.45
	c-0.01-0.03-0.03-0.06-0.03-0.09c-1.22-7.73-4.06-15.8-8.91-25.38c-2.58-5.14-5.38-10.04-8.1-14.79c-2.74-4.8-5.34-9.33-7.42-13.62
	c-1.92-3.95-3.22-7.32-3.96-10.33c-4.5,2.67-9.44,3.07-13.8,0.99c-5.42-2.59-8.73-8.35-9.03-15.36c-0.16,0-0.33,0-0.49,0
	c-2.24,0-4.41-0.04-6.56-0.11l-2.35-0.08l-0.04-2.35c0-0.27,0.01-0.53,0.01-0.8c-1.41,0.28-2.81,0.46-4.17,0.46
	c-4.02,0-7.73-1.21-10.6-3.58c-3.55-2.93-5.2-7.2-4.52-11.72c0.82-5.4,3.83-9.76,8.26-11.97c3.21-1.6,8.44-2.65,15.7,0.48
	c0.02-0.04,0.04-0.11,0.04-0.11l0.65-1.71l1.83,0.13c8.91,0.64,17.82,0.14,26.51-1.4c1.52-3.65,2.65-7.27,3.32-10.79
	c2.15-10.86,0.51-21.18-5-31.54c-7.45-13.96-21.04-25.76-32.04-34.48c-3.63-2.87-7.23-5.61-10.69-8.24
	C252.58,206.86,245.58,201.52,240.82,196.49z M231.09,299.1l4.39,54.58l5.93-0.56l-4.41-54.6L231.09,299.1z M236.94,371.85
	l3.35,41.69l5.95-0.67l-3.37-41.75L236.94,371.85z M255.63,411.82l-4.11-41.75l-4.97,0.61l3.37,41.78L255.63,411.82z M249.76,352.34
	l-5.38-54.53l-3.7,0.36l4.41,54.61L249.76,352.34z M224.47,299.74l2.99,54.7l4.33-0.41l-4.38-54.57L224.47,299.74z M228.47,372.88
	l2.28,41.73l5.85-0.66l-3.35-41.66L228.47,372.88z M210.34,101.68h17.8c9.24-7.96,11.05-14.1,9.99-16.14
	c-0.62-1.18-2.72-1.45-5.51-0.7l-5.73,1.54l2.95-5.15c6.66-11.65,6.41-18.58,3.95-21.19c-1.59-1.68-4.43-1.81-7.4-0.33l-5.82,2.9
	l2.43-6.03c1.69-4.2,1.66-8.15-0.1-10.58c-1.23-1.7-3.17-2.5-5.64-2.35c-1.92,0.12-3.35,0.91-4.37,2.4
	c-1.74,2.54-2.02,7.01-0.71,11.12l1.53,4.78L209,60.24c-2.48-0.9-4.71-0.37-6.1,1.48c-2.16,2.87-2.42,9.33,3.95,18.11l3.89,5.36
	l-6.45-1.51c-3.07-0.72-5.27,0.19-6.02,2.51C197.05,89.95,200.01,97.19,210.34,101.68z M202.27,205.52
	c5.14-5.78,8.43-10.56,10.29-14.9l0.22-0.52l0.42-0.37c8.72-7.64,10-15.14,8.45-19.24c-1.23-3.26-4.3-5.12-8.41-5.12h-0.05
	c-1.49,0-3.11,0.25-4.81,0.76c-7.69,2.27-13.8,9.31-15.21,17.53C192.34,188.48,192.51,197.51,202.27,205.52z M156.28,372.78
	c-1.16,2.18-2.38,4.47-3.61,6.84c-13.41,25.94-23.43,56.04,3.89,82.55c9.55,9.24,21.6,16.11,35.83,20.42c0.01,0,0.03,0,0.04,0
	c14.94,4.51,31.81,5.96,48.94,4.31l-17.7-71.5l3.41-0.38l-2.28-41.7l-4.47,0.54l-5.45-18.25l8.9-0.84l-2.99-54.68l-2.22,0.21
	l-5.73-100.2c-2.16,3.17-4.92,6.56-8.46,10.41c-3.98,4.3-8.4,8.61-13.09,13.17c-24.19,23.52-51.57,50.16-31.53,90.23
	c13.42,2.2,23.91,8.88,28.2,18c2.91,6.2,2.57,12.77-0.96,18.51c-3.04,4.94-6.89,7.76-11.46,8.39c-4.57,0.61-8.66-1.1-11.36-2.73
	C162.77,360.62,159.8,366.17,156.28,372.78z M104.44,428.79c1.33,2.31,3.74,3.95,6.6,4.16c2.86,0.21,5.49-1.05,7.15-3.14
	c-1.33-2.31-3.74-3.95-6.6-4.16C108.73,425.44,106.1,426.7,104.44,428.79z M124.93,406.61c3.24,0.49,6.66-0.58,9.04-3.17
	c2.39-2.59,3.18-6.08,2.44-9.27c-3.24-0.49-6.66,0.58-9.04,3.17C124.98,399.93,124.18,403.42,124.93,406.61z M139.44,472.02
	c-3.38-4.51-8.64-6.78-13.88-6.53c-1.71,4.96-1.02,10.64,2.36,15.16c3.38,4.51,8.64,6.78,13.88,6.53
	C143.51,482.22,142.82,476.54,139.44,472.02z M460.75,492.27c-11.71-3.32-25.91-6.2-42.21-8.58c4.23,12.39,10.25,19.84,18.37,22.63
	c2.82,0.97,6.1,2.42,6.4,5.13c0.08,0.68,0.03,2.4-2.04,3.68c-6.68,4.15-34.51,2.83-55.1-9.26c-0.49,4.73-2.08,15.55-16,14.19
	c-8.88-0.88-12.85-3.63-16.69-6.29c-4.01-2.77-8.15-5.64-19.24-6.64c-4.25-0.37-8.44,0.32-12.64,1.57
	c-0.31,0.17-0.66,0.27-1.02,0.29c-4.52,1.44-9.05,3.5-13.72,5.63c-6.9,3.15-14.34,6.51-22.6,8.2c-0.37,0.19-0.77,0.27-1.18,0.26
	c-2.96,0.54-6.03,0.86-9.21,0.86c-3.04,0-6.2-0.29-9.47-0.94l-0.3-0.08c-0.7-0.23-2.55-0.85-2.7-2.76
	c-0.14-1.92,1.48-2.75,3.04-3.54c2.85-1.45,8.79-4.46,13.99-12.97c2.63-4.32,4.6-12.04,5.76-22.43c-8.68,3.66-17.89,6.49-27.5,8.39
	l-1.91,29.36c-0.09,1.34-1.11,2.41-2.43,2.55c-0.1,0.01-0.2,0.01-0.29,0.01c-1.22,0-2.31-0.81-2.64-2.01l-6.88-27.79
	c-4.92,0.5-9.82,0.79-14.67,0.79c-12.68,0-24.98-1.72-36.27-5.05c-29.31,5.3-51.63,11.43-66.37,18.2c-0.2,0.13-0.4,0.23-0.63,0.29
	c-11.81,5.51-18.82,11.5-20.81,17.79c-1.24,3.91-0.59,8,1.99,12.49c9.23,16.07,100.62,8.08,159.79-1.21l4.37-0.69l-1.72,4.08
	c-0.35,0.82-0.36,1.59,0.72,2.67c9.26,9.22,65.87,11.43,115.93-9.86l1.17-0.5l1.08,0.66c25.26,15.47,48.37,16.26,60.06,10.2
	c4.48-2.33,7.08-5.61,7.31-9.25l0.18-2.86l2.8,0.61c18.81,4.12,38.34-3.43,40.56-12.27C500.26,509.08,486.31,499.53,460.75,492.27z
	 M488.16,556.03L488.16,556.03c-1.42,0.36-2.81,0.54-4.15,0.54c-3.84,0-7.28-1.44-9.62-4.15c-2.55-2.94-3.3-6.79-1.96-10.04
	c1.4-3.39,4.85-5.53,9.46-5.86c8.46-0.64,20.87,2.3,21.88,8.48C504.87,551.77,492.29,554.98,488.16,556.03z M498.9,545.78
	c0-0.05-0.11-0.33-0.59-0.75c-2.12-1.88-8.12-3.68-14.04-3.68c-0.68,0-1.35,0.02-2.02,0.07c-2.73,0.2-4.6,1.21-5.27,2.83
	c-0.62,1.5-0.18,3.43,1.13,4.94c1.94,2.25,5.16,3,8.84,2.06C498.15,548.39,498.9,545.81,498.9,545.78z M183.21,494.39l-5.48,26.4
	L162.8,498.3l5.55,31.15c9.9,3.89,19.81,3.89,29.71,0l5.55-31.15l-14.93,22.49L183.21,494.39z M328.99,513.38l-3.89,18.74
	l-10.6-15.97l3.94,22.11c7.03,2.76,14.06,2.76,21.09,0l3.94-22.11l-10.6,15.97L328.99,513.38z M467.57,500.57l-3.07,14.79
	l-8.36-12.6l3.11,17.45c5.55,2.18,11.1,2.18,16.65,0l3.11-17.45l-8.36,12.6L467.57,500.57z M110.7,313.62
	c-7.76,3.03-12.51,9.42-10.62,14.28c1.9,4.86,9.72,6.35,17.48,3.32c7.76-3.03,12.51-9.42,10.62-14.28
	c-0.24-0.63-0.59-1.19-1.02-1.71l-24.5-41.02l24.66,3.71l-11.1-19.85L92.2,274.02l27.86,38.1
	C117.22,311.89,113.96,312.35,110.7,313.62z M358.78,427.67c-0.05-0.33-0.31-0.61-0.66-0.67c-0.44-0.08-0.85,0.22-0.93,0.65
	c-0.9,5.13-1.22,10.28-1.34,15.42c-0.1,5.14,0.01,10.27,0.33,15.39c0.31,5.12,0.74,10.23,1.41,15.33
	c0.67,5.09,1.45,10.19,2.82,15.22c0.09,0.33,0.38,0.57,0.74,0.58c0.43,0.01,0.79-0.34,0.8-0.77l0-0.02c0.2-10.23,0-20.44-0.47-30.62
	C361.04,448,360.31,437.86,358.78,427.67z M256.8,342.42c0,0.03,0.01,0.05,0.02,0.08c0,0.02,0,0.05,0,0.07
	c0,0.02,0.02,0.03,0.02,0.05c0.4,2.72,2.73,4.72,5.44,4.72c0.2,0,0.4-0.01,0.6-0.03c1.47-0.16,2.78-0.88,3.71-2.03
	c0.92-1.15,1.34-2.59,1.19-4.06c-0.06-0.52-0.21-1.01-0.4-1.48c0.59,0.36,1.16,0.8,1.64,1.36c1.55,1.84,2.31,4.34,2.79,6.32
	c2.03,8.2,1.62,17.03,1.23,25.57c-0.1,2.16-0.2,4.32-0.26,6.47c-0.32,10.07,0.21,22.92,7.17,33.02c2.51,3.66,5.45,6.28,8.76,7.8
	c2.03,0.92,4.17,1.38,6.24,1.38c2.17,0,4.27-0.5,6.09-1.51c4.18-2.27,6.52-7.25,5.44-11.59c-0.61-2.42-2.37-4.57-4.71-5.77
	c-1.78-0.92-3.73-1.15-5.53-0.77c-0.35,0.06-0.7,0.15-1.04,0.28c-0.05,0.02-0.1,0.02-0.14,0.04c-0.01,0-0.01,0.01-0.01,0.01
	c-0.01,0-0.02,0.01-0.03,0.01c-2.81,1.17-4.14,4.41-2.98,7.22c0.88,2.12,2.94,3.4,5.11,3.4c0.7,0,1.42-0.13,2.11-0.42
	c1.09-0.45,1.95-1.23,2.54-2.16c0.18,2.04-1.09,4.33-3.11,5.43c-2.19,1.21-5.23,1.19-7.93-0.03c-2.48-1.14-4.74-3.19-6.75-6.11
	c-6.14-8.93-6.59-20.76-6.3-30.08c0.06-2.13,0.16-4.26,0.26-6.4c0.41-8.89,0.84-18.09-1.37-26.98c-0.62-2.5-1.6-5.7-3.82-8.32
	c-2.47-2.9-6.06-4.39-9.38-3.88c-2.05,0.32-4.03,1.55-5.29,3.29c-1.07,1.49-1.52,3.21-1.32,4.89
	C256.8,342.29,256.79,342.35,256.8,342.42z"/>
</svg>
